<?xml version="1.0" standalone="no"?>
<!DOCTYPE svg PUBLIC "-//W3C//DTD SVG 20010904//EN"
 "http://www.w3.org/TR/2001/REC-SVG-20010904/DTD/svg10.dtd">
<svg version="1.0" xmlns="http://www.w3.org/2000/svg"
 width="500.000000pt" height="500.000000pt" viewBox="0 0 500.000000 500.000000"
 preserveAspectRatio="xMidYMid meet">
<metadata>
Created by potrace 1.11, written by Peter Selinger 2001-2013
</metadata>
<g transform="translate(0.000000,500.000000) scale(0.100000,-0.100000)"
fill="#000000" stroke="none">
<path d="M2615 4990 c-11 -5 -47 -37 -80 -71 -33 -34 -80 -75 -105 -92 -25
-17 -67 -49 -95 -72 -59 -50 -114 -85 -134 -85 -8 0 -51 -18 -96 -40 -61 -29
-108 -63 -181 -130 -66 -60 -122 -102 -169 -125 -127 -63 -163 -69 -435 -71
-135 -2 -312 -7 -394 -12 -169 -10 -190 -7 -301 44 -242 111 -317 81 -359
-142 -8 -44 -27 -112 -41 -150 -38 -98 -32 -129 44 -247 73 -113 101 -180 101
-243 0 -56 -10 -75 -71 -141 -27 -29 -54 -65 -60 -80 -21 -52 -58 -258 -59
-320 0 -62 15 -100 86 -220 18 -31 18 -32 -5 -95 -13 -35 -34 -92 -47 -128
-24 -69 -58 -226 -70 -325 l-7 -60 61 81 c34 44 71 89 82 99 l20 18 -15 -44
c-8 -24 -54 -121 -101 -215 -97 -194 -106 -233 -66 -311 21 -40 21 -48 12
-140 -6 -54 -10 -161 -8 -238 l3 -140 34 60 c47 82 110 175 119 175 4 0 17
-17 28 -38 21 -37 21 -37 2 -92 -10 -30 -33 -113 -50 -185 -28 -115 -32 -146
-32 -265 1 -141 21 -421 33 -453 5 -14 15 0 41 60 110 253 237 493 262 493 4
0 8 -36 8 -79 0 -60 -11 -123 -45 -262 -25 -101 -50 -220 -54 -264 -8 -73 -1
-258 15 -393 l6 -52 117 0 117 0 -4 85 c-3 47 1 112 7 145 20 101 15 235 -14
358 -17 78 -25 137 -24 199 1 77 2 83 10 48 66 -283 191 -475 477 -726 62 -54
109 -99 104 -99 -14 0 -144 81 -217 136 -69 51 -150 131 -212 209 -51 64 -40
20 33 -126 48 -95 80 -146 115 -181 l48 -48 1144 0 1143 0 47 30 c60 38 68 38
32 0 l-29 -30 508 0 c478 0 507 1 502 18 -3 9 -10 36 -16 60 -13 50 -70 97
-160 133 -30 12 -61 27 -67 32 -25 18 -14 59 23 94 36 32 37 35 31 87 -3 30
-12 68 -21 84 -24 46 -20 77 9 90 53 24 26 75 -83 157 -60 45 -63 49 -57 79 4
17 8 63 9 101 1 58 7 80 33 125 20 35 33 76 37 113 5 44 15 71 45 115 21 31
46 82 56 112 10 30 20 59 23 64 15 26 25 -61 33 -274 5 -129 14 -260 20 -290
6 -30 31 -90 55 -133 38 -66 46 -91 56 -165 6 -53 7 -130 3 -197 -9 -129 -10
-207 -4 -290 2 -33 1 -72 -4 -88 l-7 -27 245 0 c135 0 245 2 245 5 0 3 -14 30
-31 60 -22 40 -39 57 -63 65 -75 24 -110 102 -176 385 -12 50 -32 113 -46 141
-13 28 -24 55 -24 61 0 34 -36 120 -64 151 -75 85 -80 99 -89 217 -10 135 -10
137 -2 260 6 84 4 114 -15 189 -12 49 -19 99 -16 112 3 12 39 58 79 101 107
114 192 244 212 323 9 36 30 99 48 140 29 70 31 84 34 214 3 123 5 142 23 161
40 43 53 102 56 254 l3 145 34 30 c61 54 74 137 49 306 -22 140 -58 241 -101
280 -15 14 -37 39 -49 56 -32 46 -81 97 -105 109 -12 6 -35 31 -52 56 -37 56
-137 157 -188 190 -21 13 -99 97 -173 186 -210 253 -289 313 -411 313 -71 0
-137 27 -185 75 -18 18 -54 34 -113 50 -59 17 -113 41 -173 78 -48 30 -108 67
-134 83 -26 16 -99 66 -162 111 l-114 83 -158 4 c-88 2 -168 0 -179 -4z m282
-129 c146 -53 185 -74 180 -93 -3 -10 -1 -21 4 -24 5 -3 9 5 9 16 0 22 1 21
48 -6 26 -15 83 -52 127 -82 112 -77 183 -108 263 -117 79 -8 105 -20 172 -80
30 -26 67 -49 92 -55 149 -38 227 -101 370 -296 114 -156 137 -183 195 -222
146 -99 409 -340 447 -409 48 -88 59 -121 62 -193 2 -41 1 -67 -2 -57 -3 9 -9
15 -12 13 -4 -2 -48 53 -97 122 -115 162 -279 331 -355 366 -69 32 -155 35
-239 6 -32 -11 -78 -22 -102 -26 -64 -10 -85 -23 -176 -114 -50 -49 -101 -89
-130 -102 -53 -23 -149 -117 -194 -189 -37 -59 -79 -96 -143 -124 -28 -13 -58
-30 -65 -39 -8 -10 -16 -57 -20 -115 -6 -87 -11 -104 -34 -135 -33 -43 -81
-80 -129 -100 -48 -21 -81 -62 -112 -144 -26 -69 -52 -100 -129 -156 -51 -37
-65 -62 -88 -151 -10 -42 -28 -98 -39 -123 -46 -104 -150 -168 -255 -156 -29
4 -82 1 -117 -5 -76 -15 -101 -7 -166 49 -24 22 -51 40 -58 40 -7 0 -23 17
-35 38 -12 20 -53 69 -90 108 -79 84 -85 104 -95 304 -3 74 -7 142 -9 150 -1
8 -6 44 -9 80 -7 63 -24 116 -27 80 -1 -19 -7 -60 -19 -135 -5 -33 -14 -99
-19 -147 -6 -48 -18 -102 -28 -120 -13 -24 -18 -55 -18 -117 l0 -84 -37 -21
c-52 -29 -70 -59 -72 -119 -1 -49 -3 -54 -48 -89 -56 -45 -65 -61 -79 -135
-20 -106 -80 -183 -153 -197 -37 -7 -53 -26 -100 -117 -45 -90 -116 -144 -222
-170 -68 -16 -88 -31 -125 -93 -19 -31 -40 -57 -48 -58 -9 -2 -61 2 -117 7
-87 9 -107 15 -138 39 -66 50 -141 168 -153 239 -5 33 -4 34 34 40 57 10 135
55 194 112 51 50 114 133 107 140 -2 2 -43 -9 -90 -26 -162 -55 -266 -49 -341
20 l-40 38 55 -5 c37 -3 74 2 109 13 70 22 189 76 189 85 0 4 -40 10 -90 13
-104 8 -192 35 -232 74 -27 26 -51 79 -62 138 -6 29 -5 29 14 -7 25 -46 64
-74 121 -87 52 -12 149 -14 149 -3 0 4 -23 22 -51 41 -63 43 -130 118 -157
174 -24 52 -48 141 -68 252 -21 122 -16 139 15 50 34 -99 80 -189 120 -235 30
-34 30 -35 31 -10 0 14 -7 81 -15 150 -8 69 -17 186 -21 261 -6 113 -4 145 10
185 9 27 20 64 24 83 7 30 9 23 20 -59 7 -51 17 -101 23 -111 5 -11 9 -99 9
-206 -2 -209 12 -289 71 -409 51 -103 176 -204 254 -204 59 0 154 58 245 149
164 164 221 263 240 411 5 41 19 111 30 155 19 73 20 88 9 172 -9 70 -9 108
-1 162 7 38 12 115 12 170 0 54 3 106 6 115 5 12 20 14 89 9 77 -5 87 -4 136
21 64 34 91 29 125 -25 14 -23 28 -38 32 -34 4 4 7 50 8 103 1 189 72 302 205
327 64 12 156 -43 184 -110 7 -16 16 -57 20 -90 4 -33 13 -89 20 -125 21 -101
28 -248 17 -311 -11 -58 -25 -90 -101 -234 l-43 -80 87 89 c97 99 151 177 172
245 17 58 16 185 -2 341 -25 214 -16 283 42 295 42 9 103 37 103 47 0 4 -17 8
-38 8 -47 0 -101 28 -176 93 -73 63 -119 87 -169 87 -54 0 -306 -54 -392 -83
-103 -36 -246 -105 -362 -176 -56 -34 -127 -73 -158 -87 -70 -32 -89 -30 -307
36 -89 27 -198 55 -242 61 -161 22 -335 98 -368 159 -28 51 -20 146 18 225 37
76 50 78 204 32 156 -47 172 -49 297 -38 59 6 191 13 293 16 406 12 530 26
606 70 22 13 78 58 125 100 100 91 177 138 319 196 119 48 158 70 250 143 196
156 248 170 417 107z m1286 -1466 c4 -44 5 -104 2 -133 -5 -55 -28 -112 -44
-112 -5 0 -17 21 -26 48 -10 26 -33 80 -51 121 -46 98 -45 124 4 145 20 8 53
14 72 13 l35 -2 8 -80z m185 11 c36 -33 37 -37 36 -98 -1 -64 -24 -138 -43
-138 -6 0 -11 6 -11 14 0 7 -14 58 -30 112 -44 142 -28 179 48 110z m-3129 -5
c9 -5 27 -21 40 -34 22 -24 23 -28 11 -77 -14 -60 -65 -131 -100 -141 -45 -12
-120 -9 -150 6 -75 39 -81 166 -11 229 45 40 150 49 210 17z m2704 -83 c52
-136 62 -320 21 -375 -47 -63 -67 -56 -77 28 -3 26 -23 87 -43 135 l-37 86 25
52 c26 53 74 116 88 116 4 0 15 -19 23 -42z m649 -142 c11 -16 9 -148 -2 -166
-8 -13 -10 -13 -14 0 -3 8 -17 46 -31 84 -14 37 -25 81 -25 97 l0 30 33 -17
c17 -9 35 -22 39 -28z m-868 -128 c19 -89 30 -189 30 -281 1 -103 0 -110 -23
-128 l-24 -20 -18 71 c-10 38 -37 102 -59 140 -23 39 -40 74 -38 79 12 31 105
160 115 161 7 0 15 -10 17 -22z m1008 -75 c0 -10 1 -24 1 -30 -1 -7 3 -13 8
-13 5 0 9 -5 9 -11 0 -5 -6 -7 -12 -4 -7 4 -4 -1 7 -10 17 -13 20 -28 20 -93
0 -79 -29 -182 -46 -165 -9 9 -39 224 -39 282 0 38 14 61 37 61 7 0 14 -8 15
-17z m-136 -153 c15 -47 45 -132 67 -190 53 -134 56 -208 14 -350 -15 -52 -34
-118 -42 -145 -13 -46 -27 -70 -99 -175 -57 -81 -79 -99 -228 -179 -186 -99
-229 -136 -264 -222 -36 -88 -86 -160 -169 -244 -86 -87 -134 -116 -276 -166
-155 -55 -214 -86 -282 -148 -80 -74 -121 -139 -206 -320 -83 -178 -112 -223
-183 -285 -198 -174 -701 -285 -1041 -232 -127 20 -225 52 -313 101 -70 40
-84 53 -29 31 19 -8 35 -11 35 -5 0 5 -4 9 -8 9 -14 0 -100 89 -132 136 -19
27 -49 53 -78 68 -56 29 -75 49 -93 98 -15 43 -13 47 51 73 167 70 442 308
635 550 53 66 195 268 204 289 2 5 -34 -28 -80 -73 -142 -140 -291 -242 -459
-313 -99 -42 -159 -60 -288 -84 -118 -22 -139 -16 -171 49 -21 43 -22 52 -11
95 25 100 64 136 312 286 87 52 203 130 259 173 205 159 225 173 275 193 l51
21 -9 45 c-14 63 -7 74 47 74 62 0 113 -22 120 -53 19 -75 -77 -236 -132 -222
-55 13 -9 -62 49 -81 41 -13 90 7 144 58 l53 50 30 -21 c53 -38 106 -24 186
50 17 15 42 31 56 34 24 6 28 3 39 -29 14 -42 77 -81 115 -72 20 5 74 58 100
98 7 11 33 18 78 22 62 6 67 5 67 -13 0 -20 38 -56 71 -66 11 -4 37 3 62 17
33 18 48 36 72 86 29 59 32 62 67 62 20 0 40 -4 43 -10 25 -41 130 39 210 161
53 80 63 88 82 63 10 -14 14 -41 11 -95 -3 -69 -6 -78 -31 -100 -27 -23 -29
-32 -37 -124 -10 -125 -38 -224 -98 -340 -58 -111 -163 -223 -232 -248 -191
-69 -251 -94 -295 -122 -89 -57 -104 -82 -144 -249 -6 -26 -20 -68 -31 -92
-11 -24 -27 -72 -36 -106 -33 -130 -92 -194 -217 -233 -43 -14 -111 -39 -150
-56 -63 -28 -83 -32 -162 -32 -49 0 -121 4 -160 10 -43 6 -82 7 -100 1 -45
-14 -163 -11 -225 6 -30 8 -57 13 -59 10 -2 -2 30 -20 72 -39 61 -28 88 -35
139 -35 35 0 106 -10 158 -21 129 -27 254 -27 345 1 39 11 112 25 164 30 113
12 166 34 296 125 135 94 175 149 175 245 0 25 9 46 28 67 15 18 36 58 47 90
17 49 26 61 63 82 24 13 65 51 92 85 55 70 159 136 272 173 37 12 106 42 154
67 47 25 97 46 112 46 39 0 102 42 158 107 55 63 114 164 114 195 0 48 66 121
147 163 44 22 126 79 162 113 14 13 36 28 48 33 12 4 36 33 53 62 17 30 39 62
49 71 32 29 117 244 129 326 18 120 26 270 15 270 -14 0 -41 68 -47 119 -2 24
-10 47 -17 52 -7 4 -19 38 -26 76 -6 37 -15 79 -19 93 -7 25 -7 25 25 -5 24
-22 38 -51 57 -115z m-4209 -62 c-3 -8 -6 -5 -6 6 -1 11 2 17 5 13 3 -3 4 -12
1 -19z m3160 -39 c30 -62 55 -190 48 -247 -11 -88 -50 -162 -86 -162 -3 0 -9
27 -12 60 -3 37 -17 86 -36 126 -36 78 -38 105 -10 176 26 68 47 100 62 96 7
-2 22 -24 34 -49z m-264 -161 c19 -15 47 -77 72 -163 25 -84 26 -252 2 -321
-10 -28 -30 -63 -46 -78 l-28 -27 -7 62 c-11 99 -45 187 -99 258 -42 55 -47
68 -41 95 11 51 51 134 78 161 28 28 44 31 69 13z m-170 -398 c14 -27 17 -54
15 -121 -3 -72 -8 -95 -33 -144 -16 -32 -35 -60 -42 -62 -7 -3 -16 12 -21 34
-5 21 -14 60 -21 87 -6 27 -25 68 -41 90 -17 22 -30 43 -30 48 0 14 125 108
140 106 8 -2 23 -19 33 -38z m-133 -232 c0 -7 -56 -28 -76 -28 -9 0 -14 11
-14 29 0 23 6 30 33 38 28 8 34 6 44 -11 7 -12 12 -24 13 -28z m-204 29 c10
-27 -70 -177 -94 -177 -4 0 -6 18 -4 41 3 22 -1 46 -7 52 -6 6 -11 22 -11 34
0 18 10 29 43 43 50 23 66 25 73 7z m-394 -30 c43 -13 81 -26 85 -30 13 -13
-28 -75 -68 -103 -45 -31 -65 -27 -83 18 -16 40 -30 138 -19 138 4 -1 43 -11
85 -23z"/>
<path d="M2890 4327 c-71 -33 -96 -69 -72 -102 21 -30 81 -57 174 -80 58 -13
117 -29 133 -35 50 -19 104 -70 135 -128 36 -68 106 -152 126 -152 11 0 14 19
14 91 0 70 5 100 21 136 20 44 20 48 5 80 -9 18 -20 33 -26 33 -5 0 -33 23
-62 51 -62 59 -122 92 -196 108 -68 14 -219 13 -252 -2z"/>
<path d="M4784 3471 c0 -11 5 -17 13 -14 10 4 11 9 2 19 -15 18 -15 18 -15 -5z"/>
<path d="M4790 3428 c0 -9 5 -20 11 -23 17 -11 18 -2 3 19 -12 17 -14 17 -14
4z"/>
<path d="M1110 3370 c-26 -26 -26 -66 -1 -80 33 -17 89 -13 96 9 11 35 -23 91
-57 91 -10 0 -27 -9 -38 -20z"/>
<path d="M4596 2683 c2 -40 3 -43 12 -43 6 0 7 21 3 63 -1 4 -5 7 -9 7 -4 0
-7 -12 -6 -27z"/>
<path d="M4676 2464 c-11 -8 -16 -14 -10 -14 13 0 39 18 34 24 -3 2 -14 -2
-24 -10z"/>
<path d="M1961 1749 c-58 -29 -93 -54 -123 -90 -51 -59 -86 -81 -162 -103 -63
-19 -95 -46 -154 -133 -49 -72 -79 -96 -182 -149 -107 -55 -61 -56 70 -2 l105
43 20 52 c12 28 27 59 35 68 26 31 162 117 249 158 47 21 106 56 131 76 25 20
60 47 78 60 31 22 41 44 23 55 -5 3 -45 -12 -90 -35z"/>
<path d="M2461 1593 c-1 -17 16 -25 25 -12 4 7 3 9 -4 5 -5 -3 -13 0 -15 6 -4
9 -6 10 -6 1z"/>
</g>
</svg>
